/* XPM */
static char * close_inactive_xpm[] = {
"20 24 21 1",
" 	c None",
".	c #FBFBFB",
"+	c #F6F6F6",
"@	c #DBDBDB",
"#	c #C8C8C8",
"$	c #BFBFBF",
"%	c #DCDCDC",
"&	c #F2F2F2",
"*	c #BCBCBC",
"=	c #C7C7C7",
"-	c #C6C6C6",
";	c #F3F3F3",
">	c #B8B8B8",
",	c #F5F5F5",
"'	c #E1E1E1",
")	c #BDBDBD",
"!	c #BBBBBB",
"~	c #B9B9B9",
"{	c #E0E0E0",
"]	c #DFDFDF",
"^	c #B6B6B6",
"....................",
"++++++++++++++++++++",
"++++++++++++++++++++",
"++++++++++++++++++++",
"++++++++++++++++++++",
"++++++++++++++++++++",
"+++++++@#$$#%+++++++",
"+++++&*=#==#-*;+++++",
"+++++*#=======>,++++",
"++++@=========='++++",
"++++-==========>++++",
"++++)==========!++++",
"++++)==========!++++",
"++++-==========~++++",
"++++@-========-{++++",
"+++++*========!,++++",
"+++++;>-====-!++++++",
"++++++,]^!!>{,++++++",
"++++++++++++++++++++",
"++++++++++++++++++++",
"++++++++++++++++++++",
"++++++++++++++++++++",
"++++++++++++++++++++",
"++++++++++++++++++++"};
