/* XPM */
static char * close_active_xpm[] = {
"20 24 76 1",
" 	c None",
".	c #F3F3F3",
"+	c #E4E3E4",
"@	c #E3E3E4",
"#	c #E3E2E3",
"$	c #E2E2E3",
"%	c #E2E1E2",
"&	c #E2E1E3",
"*	c #E1E0E1",
"=	c #E0DFE0",
"-	c #E0E0E1",
";	c #DFDFDF",
">	c #DA969B",
",	c #DE5C65",
"'	c #E0414B",
")	c #E0414C",
"!	c #DE5D65",
"~	c #DA989D",
"{	c #DEDDDE",
"]	c #DDD4D5",
"^	c #DA3E4A",
"/	c #F14E54",
"(	c #F35157",
"_	c #F25056",
":	c #F04D53",
"<	c #DDD7D8",
"[	c #DDDCDD",
"}	c #DA3D48",
"|	c #F35257",
"1	c #D8313E",
"2	c #DCDADB",
"3	c #DBDADB",
"4	c #D79197",
"5	c #F24F55",
"6	c #D9A2A7",
"7	c #DAD9DA",
"8	c #DD5761",
"9	c #D9D9DA",
"0	c #E13D47",
"a	c #DF3540",
"b	c #D8D8D9",
"c	c #D8D7D8",
"d	c #E03D47",
"e	c #DF3541",
"f	c #D7D6D7",
"g	c #DC5660",
"h	c #D73340",
"i	c #D4D4D5",
"j	c #D48E94",
"k	c #F04E54",
"l	c #F14E55",
"m	c #D59CA1",
"n	c #D5D4D5",
"o	c #D4D3D4",
"p	c #D93A46",
"q	c #D73845",
"r	c #D3D0D2",
"s	c #D2D1D2",
"t	c #D1D1D2",
"u	c #D1CACB",
"v	c #D7323E",
"w	c #F14F55",
"x	c #D83945",
"y	c #D1D0D1",
"z	c #D2979C",
"A	c #D62E3C",
"B	c #DF3641",
"C	c #D6313D",
"D	c #D3999F",
"E	c #D2D0D2",
"F	c #D2D1D3",
"G	c #D0CFD0",
"H	c #D0CFD1",
"I	c #CFCECF",
"J	c #CFCED0",
"K	c #CECDCE",
"....................",
"++++@@@@++++++++++++",
"####$$$$############",
"%%%%%%%%%%%%%%%%&&&&",
"********************",
"================----",
";;;;;;;>,')!~;;;;;;;",
"{{{{{]^/(__(:^<{{{{{",
"[[[[[}|_______12[[[[",
"333345_________63333",
"77778(_________17777",
"99990__________abbbb",
"ccccd__________ecccc",
"ffffg(_________hffff",
"iiiijk________lmnnnn",
"ooooop________qroooo",
"sssstuvw____kxttssss",
"ttttttyzAeBCDEFFssss",
"GGGGGGGGGGGGGGGGHHHH",
"GGGGGGGGGGGGGGGGGGGG",
"IIIIIIIIJJJJIIIIIIII",
"KKKKKKKKKKKKKKKKKKKK",
"KKKKKKKKKKKKKKKKKKKK",
"KKKKKKKKKKKKKKKKKKKK"};
