/* XPM */
static char *close_active[] = {
/* columns rows colors chars-per-pixel */
"20 24 14 1 ",
"  c #DA2E3B",
". c #E03641",
"X c #E03742",
"o c #E13842",
"O c #E43C46",
"+ c #E43D47",
"@ c #EB464E",
"# c #EB474E",
"$ c #EB474F",
"% c #EF4B52",
"& c #F14E55",
"* c #F25056",
"= c #F25156",
"- c None",
/* pixels */
"--------------------",
"--------------------",
"--------------------",
"--------------------",
"--------------------",
"--------------------",
"--------.OO.--------",
"------.#&**&#.------",
"-----.%******&.-----",
"---- %********#-----",
"----.&********&.----",
"----O**********O----",
"----O**********O----",
"----o&********&o----",
"---- #********#-----",
"-----.&******%.-----",
"------.$&**&$.------",
"--------oOO.--------",
"--------------------",
"--------------------",
"--------------------",
"--------------------",
"--------------------",
"--------------------"
};
