/* XPM */
static char * close_prelight_xpm[] = {
"20 24 89 1",
" 	c None",
".	c #F3F3F3",
"+	c #E4E3E4",
"@	c #E3E3E4",
"#	c #E3E2E3",
"$	c #E2E2E3",
"%	c #E2E1E2",
"&	c #E2E1E3",
"*	c #E1E0E1",
"=	c #E0DFE0",
"-	c #E0E0E1",
";	c #DFDFDF",
">	c #DA9298",
",	c #DE5961",
"'	c #E13D47",
")	c #E13E47",
"!	c #DE5962",
"~	c #DA9399",
"{	c #DEDDDE",
"]	c #DDD3D5",
"^	c #DB3A45",
"/	c #F14F56",
"(	c #F35157",
"_	c #F25056",
":	c #F04E54",
"<	c #DA3B47",
"[	c #DDD5D7",
"}	c #DDDCDD",
"|	c #F35257",
"1	c #F04F55",
"2	c #D8303E",
"3	c #DCDADB",
"4	c #DBDADB",
"5	c #D78F96",
"6	c #9F1D2B",
"7	c #E84B51",
"8	c #E1464D",
"9	c #A31F2D",
"0	c #F55257",
"a	c #D9A0A5",
"b	c #DAD9DA",
"c	c #DD5760",
"d	c #E5494F",
"e	c #DF444C",
"f	c #9C1B29",
"g	c #E74951",
"h	c #D8313D",
"i	c #D9D9DA",
"j	c #A3202D",
"k	c #A11E2C",
"l	c #E4474F",
"m	c #DF3540",
"n	c #D8D8D9",
"o	c #D8D7D8",
"p	c #E03D47",
"q	c #E0454D",
"r	c #D7D6D7",
"s	c #DC565F",
"t	c #9C1B2A",
"u	c #9E1D2B",
"v	c #D73340",
"w	c #D4D4D5",
"x	c #D48C93",
"y	c #E74950",
"z	c #AA2431",
"A	c #F14E55",
"B	c #D59BA0",
"C	c #D5D4D5",
"D	c #D4D3D4",
"E	c #D93945",
"F	c #D73643",
"G	c #D3D0D2",
"H	c #D2D1D2",
"I	c #D1D1D2",
"J	c #D1CACB",
"K	c #D7303D",
"L	c #D73642",
"M	c #D1CFD0",
"N	c #D2999E",
"O	c #DF3541",
"P	c #D7333F",
"Q	c #D3999F",
"R	c #D2CED1",
"S	c #D2D1D3",
"T	c #D0CFD0",
"U	c #D0CFD1",
"V	c #CFCECF",
"W	c #CFCED0",
"X	c #CECDCE",
"....................",
"++++@@@@++++++++++++",
"####$$$$############",
"%%%%%%%%%%%%%%%%&&&&",
"********************",
"================----",
";;;;;;;>,')!~;;;;;;;",
"{{{{{]^/(__(:<[{{{{{",
"}}}}}^|1____1_23}}}}",
"44445/167__890_a4444",
"bbbbc(_76defg__hbbbb",
"iiii'___djkl___mnnnn",
"oooop___ekjq___moooo",
"rrrrs(_8tlqu8__vrrrr",
"wwwwx:19y__8z0ABCCCC",
"DDDDDE_0____0_FGDDDD",
"HHHHIJK_____ALIIHHHH",
"IIIIIIMNKmOPQRSSHHHH",
"TTTTTTTTTTTTTTTTUUUU",
"TTTTTTTTTTTTTTTTTTTT",
"VVVVVVVVWWWWVVVVVVVV",
"XXXXXXXXXXXXXXXXXXXX",
"XXXXXXXXXXXXXXXXXXXX",
"XXXXXXXXXXXXXXXXXXXX"};
