/* XPM */
static char * close_pressed_xpm[] = {
"20 24 81 1",
" 	c None",
".	c #F3F3F3",
"+	c #E4E3E4",
"@	c #E3E3E4",
"#	c #E3E2E3",
"$	c #E2E2E3",
"%	c #E2E1E2",
"&	c #E2E1E3",
"*	c #E1E0E1",
"=	c #E0DFE0",
"-	c #E0E0E1",
";	c #DFDFDF",
">	c #DB979D",
",	c #D7535D",
"'	c #D5313F",
")	c #D7545F",
"!	c #DB999F",
"~	c #DEDDDE",
"{	c #DDD4D6",
"]	c #D53845",
"^	c #D52735",
"/	c #D53844",
"(	c #DDD7D8",
"_	c #DDDCDD",
":	c #D53643",
"<	c #D42735",
"[	c #D52E3B",
"}	c #DCDADB",
"|	c #DBDADB",
"1	c #D89298",
"2	c #9F1D2B",
"3	c #CF2634",
"4	c #CB2634",
"5	c #A11D2B",
"6	c #D72735",
"7	c #D9A2A7",
"8	c #DAD9DA",
"9	c #D64D58",
"0	c #CD2634",
"a	c #CA2533",
"b	c #9D1D2B",
"c	c #D52D3B",
"d	c #D9D9DA",
"e	c #D52C3A",
"f	c #A11E2C",
"g	c #A01D2B",
"h	c #CC2533",
"i	c #D8D8D9",
"j	c #D8D7D8",
"k	c #D7D6D7",
"l	c #D54C57",
"m	c #CB2533",
"n	c #CA2634",
"o	c #9E1D2B",
"p	c #C92533",
"q	c #D52F3D",
"r	c #D4D4D5",
"s	c #D58E94",
"t	c #A61E2C",
"u	c #D59BA0",
"v	c #D5D4D5",
"w	c #D4D3D4",
"x	c #D43441",
"y	c #D4D0D2",
"z	c #D2D1D2",
"A	c #D1D1D2",
"B	c #D1CACB",
"C	c #D42D3B",
"D	c #D43541",
"E	c #D1D0D1",
"F	c #D2979C",
"G	c #D42B38",
"H	c #D42E3B",
"I	c #D3989E",
"J	c #D2D0D2",
"K	c #D2D1D3",
"L	c #D0CFD0",
"M	c #D0CFD1",
"N	c #CFCECF",
"O	c #CFCED0",
"P	c #CECDCE",
"....................",
"++++@@@@++++++++++++",
"####$$$$############",
"%%%%%%%%%%%%%%%%&&&&",
"********************",
"================----",
";;;;;;;>,'')!;;;;;;;",
"~~~~~{]^^^^^^/(~~~~~",
"_____:^<^^^^<^[}____",
"||||1^<23^^456^7||||",
"88889^^320ab0^^c8888",
"dddde^^^0fgh^^^^iiii",
"jjjje^^^ag5a^^^^jjjj",
"kkkkl^^mbhnop^^qkkkk",
"rrrrs^<f0^^nt6^uvvvv",
"wwwwwx^6^^^^6^xywwww",
"zzzzABC^^^^^^DAAzzzz",
"AAAAAAEFG^^HIJKKzzzz",
"LLLLLLLLLLLLLLLLMMMM",
"LLLLLLLLLLLLLLLLLLLL",
"NNNNNNNNOOOONNNNNNNN",
"PPPPPPPPPPPPPPPPPPPP",
"PPPPPPPPPPPPPPPPPPPP",
"PPPPPPPPPPPPPPPPPPPP"};
