/* XPM */
static char *close_prelight[] = {
/* columns rows colors chars-per-pixel */
"20 24 31 1 ",
"  c #AB2431",
". c #AB2531",
"X c #AC2532",
"o c #B02734",
"O c #BE303B",
"+ c #BF303B",
"@ c #BF313B",
"# c #BF313C",
"$ c #DA2E3B",
"% c #D73F48",
"& c #E03641",
"* c #E03742",
"= c #E13742",
"- c #E13842",
"; c #E43C46",
": c #E43D47",
"> c #E53D47",
", c #D74048",
"< c #D84048",
"1 c #D84049",
"2 c #D94049",
"3 c #EB474E",
"4 c #EC474F",
"5 c #EE4B52",
"6 c #EE4E54",
"7 c #F14E55",
"8 c #F14F55",
"9 c #F25056",
"0 c #F35056",
"q c #F35156",
"w c None",
/* pixels */
"wwwwwwwwwwwwwwwwwwww",
"wwwwwwwwwwwwwwwwwwww",
"wwwwwwwwwwwwwwwwwwww",
"wwwwwwwwwwwwwwwwwwww",
"wwwwwwwwwwwwwwwwwwww",
"wwwwwwwwwwwwwwwwwwww",
"wwwwwww$-::*$wwwwwww",
"wwwwww*479974*wwwwww",
"wwwww%46999965*wwwww",
"wwww$36$199%#64wwwww",
"wwww*7q%o1,o197*wwww",
"wwww:98q1..1999:wwww",
"wwww;88q%..1999:wwww",
"wwww%68%o11o197*wwww",
"wwww$36$1991+64wwwww",
"wwwww%46999965*wwwww",
"wwwwww*379973%wwwwww",
"wwwwwwww*::*wwwwwwww",
"wwwwwwwwwwwwwwwwwwww",
"wwwwwwwwwwwwwwwwwwww",
"wwwwwwwwwwwwwwwwwwww",
"wwwwwwwwwwwwwwwwwwww",
"wwwwwwwwwwwwwwwwwwww",
"wwwwwwwwwwwwwwwwwwww"
};
