/* XPM */
static char *hide_inactive[] = {
/* columns rows colors chars-per-pixel */
"20 24 9 1 ",
"  c #B7B7B7",
". c #BBBBBB",
"X c #BCBCBC",
"o c #BEBEBE",
"O c #C3C3C3",
"+ c #C5C5C5",
"@ c #C6C6C6",
"# c #C7C7C7",
"$ c None",
/* pixels */
"$$$$$$$$$$$$$$$$$$$$",
"$$$$$$$$$$$$$$$$$$$$",
"$$$$$$$$$$$$$$$$$$$$",
"$$$$$$$$$$$$$$$$$$$$",
"$$$$$$$$$$$$$$$$$$$$",
"$$$$$$$$$$$$$$$$$$$$",
"$$$$$$$$.ooo$$$$$$$$",
"$$$$$$.O@@@@O.$$$$$$",
"$$$$$.@#@####@.$$$$$",
"$$$$$O@#######O $$$$",
"$$$$o@######@@@o$$$$",
"$$$$o@#######@@o$$$$",
"$$$$o@@########o$$$$",
"$$$$o@@@######@o$$$$",
"$$$$$O###@##@@O $$$$",
"$$$$$.@#####@@.$$$$$",
"$$$$$$.O@@@@O.$$$$$$",
"$$$$$$$$.ooo$$$$$$$$",
"$$$$$$$$$$$$$$$$$$$$",
"$$$$$$$$$$$$$$$$$$$$",
"$$$$$$$$$$$$$$$$$$$$",
"$$$$$$$$$$$$$$$$$$$$",
"$$$$$$$$$$$$$$$$$$$$",
"$$$$$$$$$$$$$$$$$$$$"
};
