/* XPM */
static char * hide_prelight_xpm[] = {
"20 24 77 1",
" 	c None",
".	c #F3F3F3",
"+	c #E4E3E4",
"@	c #E3E3E4",
"#	c #E3E2E3",
"$	c #E2E2E3",
"%	c #E2E1E2",
"&	c #E2E1E3",
"*	c #E1E0E1",
"=	c #E0DFE0",
"-	c #E0E0E1",
";	c #DFDFDF",
">	c #DBC38A",
",	c #E2B646",
"'	c #E7B025",
")	c #E7AF25",
"!	c #DCC38A",
"~	c #DEDDDE",
"{	c #DDD9D3",
"]	c #DFA925",
"^	c #FAC435",
"/	c #FBC637",
"(	c #FAC536",
"_	c #F9C334",
":	c #DEA824",
"<	c #DDDAD5",
"[	c #DDDCDD",
"}	c #FBC738",
"|	c #DDA319",
"1	c #DCDBDB",
"2	c #DBDADB",
"3	c #D9C088",
"4	c #F9C435",
"5	c #DBC696",
"6	c #DAD9DA",
"7	c #E1B545",
"8	c #DCA218",
"9	c #D9D9DA",
"0	c #E7B026",
"a	c #C18722",
"b	c #C08623",
"c	c #C58B24",
"d	c #E5AC1D",
"e	c #D8D8D9",
"f	c #D8D7D8",
"g	c #CE9527",
"h	c #D19828",
"i	c #E6AC1D",
"j	c #D7D6D7",
"k	c #E1B345",
"l	c #DCA41C",
"m	c #D4D4D5",
"n	c #D6BD86",
"o	c #F8C334",
"p	c #F9C335",
"q	c #D7C293",
"r	c #D5D4D5",
"s	c #D4D3D4",
"t	c #DFA724",
"u	c #DCA520",
"v	c #D4D2D1",
"w	c #D2D1D2",
"x	c #D1D1D2",
"y	c #D1CECA",
"z	c #D1D0D0",
"A	c #D4C093",
"B	c #DCA219",
"C	c #E5AB1D",
"D	c #DCA41B",
"E	c #D5C092",
"F	c #D2D0D0",
"G	c #D2D1D3",
"H	c #D0CFD0",
"I	c #D0CFD1",
"J	c #CFCECF",
"K	c #CFCED0",
"L	c #CECDCE",
"....................",
"++++@@@@++++++++++++",
"####$$$$############",
"%%%%%%%%%%%%%%%%&&&&",
"********************",
"================----",
";;;;;;;>,'),!;;;;;;;",
"~~~~~{]^/((/_:<~~~~~",
"[[[[[]}(((((((|1[[[[",
"222234(((((((((52222",
"66667/(((((((((86666",
"99990(abbbbbbc(deeee",
"ffff0(gggggggh(iffff",
"jjjjk/(((((((((ljjjj",
"mmmmno((((((((pqrrrr",
"ssssst((((((((uvssss",
"wwwwxy|(((((_uxxwwww",
"xxxxxxzABdCDEFGGwwww",
"HHHHHHHHHHHHHHHHIIII",
"HHHHHHHHHHHHHHHHHHHH",
"JJJJJJJJKKKKJJJJJJJJ",
"LLLLLLLLLLLLLLLLLLLL",
"LLLLLLLLLLLLLLLLLLLL",
"LLLLLLLLLLLLLLLLLLLL"};
