/* XPM */
static char *hide_active[] = {
/* columns rows colors chars-per-pixel */
"20 24 13 1 ",
"  c #E6AC1E",
". c #E6AD1E",
"X c #E7AD1F",
"o c #E7AE1F",
"O c #EBB224",
"+ c #EBB324",
"@ c #F3BC2D",
"# c #F6C132",
"$ c #F9C334",
"% c #F9C335",
"& c #FAC536",
"* c #FAC637",
"= c None",
/* pixels */
"====================",
"====================",
"====================",
"====================",
"====================",
"====================",
"======== OO ========",
"====== @&&&$@ ======",
"===== #&&&&&&# =====",
"=====@*&&&&&&&@=====",
"====o&&&&&&&&&& ====",
"====O&&&&&&&&&&O====",
"====O&&&&&&&&&&O====",
"====o&&&&&&&&&&o====",
"=====@&&&&&&&&@=====",
"===== #&&&&&&# =====",
"====== @&&&&@ ======",
"======== OO ========",
"====================",
"====================",
"====================",
"====================",
"====================",
"===================="
};
