/* XPM */
static char *hide_pressed[] = {
/* columns rows colors chars-per-pixel */
"20 24 10 1 ",
"  c #C78D24",
". c #C78E25",
"X c #C88E25",
"o c #D19828",
"O c #D19928",
"+ c #F6C135",
"@ c #FAC536",
"# c #FBC636",
"$ c #FBC736",
"% c None",
/* pixels */
"%%%%%%%%%%%%%%%%%%%%",
"%%%%%%%%%%%%%%%%%%%%",
"%%%%%%%%%%%%%%%%%%%%",
"%%%%%%%%%%%%%%%%%%%%",
"%%%%%%%%%%%%%%%%%%%%",
"%%%%%%%%%%%%%%%%%%%%",
"%%%%%%%%@@@@%%%%%%%%",
"%%%%%%@@@@@@@@%%%%%%",
"%%%%%@@@@@@@@@@%%%%%",
"%%%%%@@@@@@@@@@%%%%%",
"%%%%@@$$@$$$$$@@%%%%",
"%%%%@+O.XXXXXO+@%%%%",
"%%%%@+O.XXXX.O+@%%%%",
"%%%%@@@$$$$$$@@@%%%%",
"%%%%%@@@@@@@@@@%%%%%",
"%%%%%@@@@@@@@@@%%%%%",
"%%%%%%@@@@@@@@%%%%%%",
"%%%%%%%%@@@@%%%%%%%%",
"%%%%%%%%%%%%%%%%%%%%",
"%%%%%%%%%%%%%%%%%%%%",
"%%%%%%%%%%%%%%%%%%%%",
"%%%%%%%%%%%%%%%%%%%%",
"%%%%%%%%%%%%%%%%%%%%",
"%%%%%%%%%%%%%%%%%%%%"
};
