/* XPM */
static char *hide_prelight[] = {
/* columns rows colors chars-per-pixel */
"20 24 26 1 ",
"  c #E0A517",
". c #E6AC1E",
"X c #E6AD1E",
"o c #E7AD1F",
"O c #E7AE1F",
"+ c #C68C24",
"@ c #C78D24",
"# c #C78E25",
"$ c #C88E25",
"% c #D19828",
"& c #D29928",
"* c #EBB224",
"= c #EBB324",
"- c #F3BC2D",
"; c #F3BC2E",
": c #F6C132",
"> c #F7C132",
", c #F6C135",
"< c #F9C334",
"1 c #F9C435",
"2 c #FAC536",
"3 c #FBC636",
"4 c #FBC736",
"5 c #FAC637",
"6 c #FBC637",
"7 c None",
/* pixels */
"77777777777777777777",
"77777777777777777777",
"77777777777777777777",
"77777777777777777777",
"77777777777777777777",
"77777777777777777777",
"7777777 O==O 7777777",
"777777X;1111;X777777",
"77777O;666166;O77777",
"7777 ;56616616;77777",
"7777O6666666666O7777",
"7777=;%@@@@@+%,=7777",
"7777=,%@$$@@@&,=7777",
"7777O6666666661O7777",
"77777;61666161;77777",
"77777O;616166,O77777",
"777777O;555,;O777777",
"77777777O==O77777777",
"77777777777777777777",
"77777777777777777777",
"77777777777777777777",
"77777777777777777777",
"77777777777777777777",
"77777777777777777777"
};
