/* XPM */
static char * hide_pressed_xpm[] = {
"20 24 66 1",
" 	c None",
".	c #F3F3F3",
"+	c #E4E3E4",
"@	c #E3E3E4",
"#	c #E3E2E3",
"$	c #E2E2E3",
"%	c #E2E1E2",
"&	c #E2E1E3",
"*	c #E1E0E1",
"=	c #E0DFE0",
"-	c #E0E0E1",
";	c #DFDFDF",
">	c #E9D59E",
",	c #F3CB5F",
"'	c #F8C63F",
")	c #DEDDDE",
"!	c #DFDBD6",
"~	c #F7C747",
"{	c #FAC536",
"]	c #F7C745",
"^	c #DEDCD8",
"/	c #DDDCDD",
"(	c #F8C53B",
"_	c #DDDBDB",
":	c #DBDADB",
"<	c #E7D199",
"[	c #E4D3A5",
"}	c #DAD9DA",
"|	c #F2C95A",
"1	c #D9D9DA",
"2	c #C38923",
"3	c #C28823",
"4	c #C68D24",
"5	c #D8D8D9",
"6	c #D8D7D8",
"7	c #FAC436",
"8	c #CF9628",
"9	c #CE9527",
"0	c #D19928",
"a	c #D7D6D7",
"b	c #F2C859",
"c	c #FBC636",
"d	c #F8C53C",
"e	c #D4D4D5",
"f	c #E3CE96",
"g	c #E1CE9E",
"h	c #D5D4D5",
"i	c #D4D3D4",
"j	c #F6C643",
"k	c #F7C642",
"l	c #D4D2D2",
"m	c #D2D1D2",
"n	c #D1D1D2",
"o	c #D2D0CC",
"p	c #F6C542",
"q	c #D1D0D1",
"r	c #DECC9D",
"s	c #F8C53A",
"t	c #DFCC9E",
"u	c #D2D0D2",
"v	c #D2D1D3",
"w	c #D0CFD0",
"x	c #D0CFD1",
"y	c #CFCECF",
"z	c #CFCED0",
"A	c #CECDCE",
"....................",
"++++@@@@++++++++++++",
"####$$$$############",
"%%%%%%%%%%%%%%%%&&&&",
"********************",
"================----",
";;;;;;;>,'',>;;;;;;;",
")))))!~{{{{{{]^)))))",
"/////]{{{{{{{{(_////",
"::::<{{{{{{{{{{[::::",
"}}}}|{{{{{{{{{{(}}}}",
"1111({23333334{{5555",
"6666(789999990{{6666",
"aaaab{cccccccc{daaaa",
"eeeef{{{{{{{{{{ghhhh",
"iiiiij{{{{{{{{kliiii",
"mmmmnod{{{{{{pnnmmmm",
"nnnnnnqrs{{dtuvvmmmm",
"wwwwwwwwwwwwwwwwxxxx",
"wwwwwwwwwwwwwwwwwwww",
"yyyyyyyyzzzzyyyyyyyy",
"AAAAAAAAAAAAAAAAAAAA",
"AAAAAAAAAAAAAAAAAAAA",
"AAAAAAAAAAAAAAAAAAAA"};
