/* XPM */
static char * hide_active_xpm[] = {
"20 24 75 1",
" 	c None",
".	c #F3F3F3",
"+	c #E4E3E4",
"@	c #E3E3E4",
"#	c #E3E2E3",
"$	c #E2E2E3",
"%	c #E2E1E2",
"&	c #E2E1E3",
"*	c #E1E0E1",
"=	c #E0DFE0",
"-	c #E0E0E1",
";	c #DFDFDF",
">	c #DBC48E",
",	c #E2B64A",
"'	c #E6B02A",
")	c #E6B02B",
"!	c #DEDDDE",
"~	c #DDD9D4",
"{	c #DFAA2A",
"]	c #F9C434",
"^	c #FBC637",
"/	c #FAC536",
"(	c #F8C233",
"_	c #DEA928",
":	c #DDDAD6",
"<	c #DDDCDD",
"[	c #DFA928",
"}	c #FBC738",
"|	c #DDA41B",
"1	c #DCDBDB",
"2	c #DBDADB",
"3	c #D9C189",
"4	c #F9C435",
"5	c #DBC699",
"6	c #DAD9DA",
"7	c #E1B446",
"8	c #DCA219",
"9	c #D9D9DA",
"0	c #E7B026",
"a	c #E5AC1E",
"b	c #D8D8D9",
"c	c #D8D7D8",
"d	c #E6B026",
"e	c #D7D6D7",
"f	c #E1B345",
"g	c #DDA41D",
"h	c #D4D4D5",
"i	c #D6BD86",
"j	c #F8C334",
"k	c #F9C334",
"l	c #D7C293",
"m	c #D5D4D5",
"n	c #D4D3D4",
"o	c #DEA826",
"p	c #DDA523",
"q	c #D4D2D1",
"r	c #D2D1D2",
"s	c #D1D1D2",
"t	c #D1CFCB",
"u	c #DCA31B",
"v	c #DCA523",
"w	c #D1D0D1",
"x	c #D4C091",
"y	c #DCA218",
"z	c #E5AC1D",
"A	c #E6AC1E",
"B	c #DBA31B",
"C	c #D5C092",
"D	c #D2D0D2",
"E	c #D2D1D3",
"F	c #D0CFD0",
"G	c #D0CFD1",
"H	c #CFCECF",
"I	c #CFCED0",
"J	c #CECDCE",
"....................",
"++++@@@@++++++++++++",
"####$$$$############",
"%%%%%%%%%%%%%%%%&&&&",
"********************",
"================----",
";;;;;;;>,'),>;;;;;;;",
"!!!!!~{]^//^(_:!!!!!",
"<<<<<[}///////|1<<<<",
"222234/////////52222",
"66667^/////////86666",
"99990//////////abbbb",
"ccccd//////////acccc",
"eeeef^/////////geeee",
"hhhhij////////klmmmm",
"nnnnno////////pqnnnn",
"rrrrstu4////jvssrrrr",
"sssssswxyzABCDEErrrr",
"FFFFFFFFFFFFFFFFGGGG",
"FFFFFFFFFFFFFFFFFFFF",
"HHHHHHHHIIIIHHHHHHHH",
"JJJJJJJJJJJJJJJJJJJJ",
"JJJJJJJJJJJJJJJJJJJJ",
"JJJJJJJJJJJJJJJJJJJJ"};
