/* XPM */
static char *maximize_inactive[] = {
/* columns rows colors chars-per-pixel */
"20 24 8 1 ",
"  c #BBBBBB",
". c #BCBCBC",
"X c #BEBEBE",
"o c #C3C3C3",
"O c #C5C5C5",
"+ c #C6C6C6",
"@ c #C7C7C7",
"# c None",
/* pixels */
"####################",
"####################",
"####################",
"####################",
"####################",
"####################",
"######## XXX########",
"###### o++++o ######",
"#####X+@@+@@@+ #####",
"#####o+@@@@@@@o#####",
"#### +@@@@@@+++X####",
"####X+@@@@@@@++X####",
"####X++@@@@+@@@X####",
"####X+++@@@@@@+X####",
"#####o@@@@@@++o#####",
"##### +@@@@@++ #####",
"######Xo++++o ######",
"######## XXX########",
"####################",
"####################",
"####################",
"####################",
"####################",
"####################"
};
