/* XPM */
static char *maximize_pressed[] = {
/* columns rows colors chars-per-pixel */
"20 24 23 1 ",
"  c #0B7206",
". c #0C7A09",
"X c #0C7B09",
"o c #0C7C09",
"O c #0C7F0A",
"+ c #0C800B",
"@ c #0D870D",
"# c #0D880D",
"$ c #0D890D",
"% c #11AE18",
"& c #11AF19",
"* c #11B019",
"= c #12B41A",
"- c #12B51A",
"; c #12B61B",
": c #12B71B",
"> c #12BB1C",
", c #12BC1C",
"< c #12BC1D",
"1 c #13C11E",
"2 c #13C21E",
"3 c #13C31F",
"4 c None",
/* pixels */
"44444444444444444444",
"44444444444444444444",
"44444444444444444444",
"44444444444444444444",
"44444444444444444444",
"44444444444444444444",
"44444444111144444444",
"44444411111111444444",
"44444111<;;;>1144444",
"44444111;$Xo$>114444",
"444411<;1*+ o;114444",
"444411;$%1*+o;114444",
"444411:o+%3*$;114444",
"444411:o +%3;<114444",
"444441>$XX@*11114444",
"4444411>;;;<11144444",
"44444411113111444444",
"44444444111144444444",
"44444444444444444444",
"44444444444444444444",
"44444444444444444444",
"44444444444444444444",
"44444444444444444444",
"44444444444444444444"
};
