/* XPM */
static char *maximize_active[] = {
/* columns rows colors chars-per-pixel */
"20 24 15 1 ",
"  c #1AC825",
". c #21D02E",
"X c #22D12F",
"o c #22D22F",
"O c #27D634",
"+ c #27D735",
"@ c #30E03F",
"# c #30E13F",
"$ c #35E544",
"% c #35E644",
"& c #37E847",
"* c #38E847",
"= c #39EA49",
"- c #3AEB4A",
"; c None",
/* pixels */
";;;;;;;;;;;;;;;;;;;;",
";;;;;;;;;;;;;;;;;;;;",
";;;;;;;;;;;;;;;;;;;;",
";;;;;;;;;;;;;;;;;;;;",
";;;;;;;;;;;;;;;;;;;;",
";;;;;;;;;;;;;;;;;;;;",
";;;;;;;;.OO.;;;;;;;;",
";;;;;;.@===*@.;;;;;;",
";;;;;.%======%.;;;;;",
";;;;;$========$ ;;;;",
";;;;.*========%.;;;;",
";;;;O==========+;;;;",
";;;;O==========+;;;;",
";;;;.%========%O;;;;",
";;;;;$-=======@ ;;;;",
";;;;;.%======%.;;;;;",
";;;;;;.@===&@.;;;;;;",
";;;;;;;;.OO.;;;;;;;;",
";;;;;;;;;;;;;;;;;;;;",
";;;;;;;;;;;;;;;;;;;;",
";;;;;;;;;;;;;;;;;;;;",
";;;;;;;;;;;;;;;;;;;;",
";;;;;;;;;;;;;;;;;;;;",
";;;;;;;;;;;;;;;;;;;;"
};
