/* XPM */
static char * maximize_active_xpm[] = {
"20 24 77 1",
" 	c None",
".	c #F3F3F3",
"+	c #E4E3E4",
"@	c #E3E3E4",
"#	c #E3E2E3",
"$	c #E2E2E3",
"%	c #E2E1E2",
"&	c #E2E1E3",
"*	c #E1E0E1",
"=	c #E0DFE0",
"-	c #E0E0E1",
";	c #DFDFDF",
">	c #90D294",
",	c #4CD156",
"'	c #2ED23A",
")	c #2DD239",
"!	c #4CD256",
"~	c #8ED292",
"{	c #DEDDDE",
"]	c #D5DBD6",
"^	c #2ECA3A",
"/	c #37E847",
"(	c #3AEB4A",
"_	c #39EA49",
":	c #36E746",
"<	c #29C934",
"[	c #D6DBD6",
"}	c #DDDCDD",
"|	c #2DCA38",
"1	c #3BEC4B",
"2	c #1DC527",
"3	c #DBDBDB",
"4	c #DBDADB",
"5	c #8CCE90",
"6	c #38E847",
"7	c #96D29A",
"8	c #DAD9DA",
"9	c #4BD054",
"0	c #19C525",
"a	c #D9D9DA",
"b	c #2CD238",
"c	c #21D12E",
"d	c #D8D8D9",
"e	c #D8D7D8",
"f	c #21D02E",
"g	c #D7D6D7",
"h	c #4ACF53",
"i	c #1DC628",
"j	c #D4D4D5",
"k	c #89CB8D",
"l	c #37E746",
"m	c #38E948",
"n	c #91CE95",
"o	c #D5D4D5",
"p	c #D4D3D4",
"q	c #2AC835",
"r	c #26C630",
"s	c #D1D2D1",
"t	c #D2D1D2",
"u	c #D1D1D2",
"v	c #CAD0CC",
"w	c #1FC42A",
"x	c #38E947",
"y	c #D0D0D1",
"z	c #93CC97",
"A	c #1CC427",
"B	c #20CF2D",
"C	c #21D02D",
"D	c #1DC428",
"E	c #90CB94",
"F	c #D1D0D2",
"G	c #D2D1D3",
"H	c #D0CFD0",
"I	c #D0CFD1",
"J	c #CFCECF",
"K	c #CFCED0",
"L	c #CECDCE",
"....................",
"++++@@@@++++++++++++",
"####$$$$############",
"%%%%%%%%%%%%%%%%&&&&",
"********************",
"================----",
";;;;;;;>,')!~;;;;;;;",
"{{{{{]^/(__(:<[{{{{{",
"}}}}}|1_______23}}}}",
"444456_________74444",
"88889(_________08888",
"aaaab__________cdddd",
"eeeeb__________feeee",
"ggggh(_________igggg",
"jjjjkl________mnoooo",
"pppppq________rspppp",
"ttttuvwx____/ruutttt",
"uuuuuuyzABCDEFGGtttt",
"HHHHHHHHHHHHHHHHIIII",
"HHHHHHHHHHHHHHHHHHHH",
"JJJJJJJJKKKKJJJJJJJJ",
"LLLLLLLLLLLLLLLLLLLL",
"LLLLLLLLLLLLLLLLLLLL",
"LLLLLLLLLLLLLLLLLLLL"};
