/* XPM */
static char * maximize_prelight_xpm[] = {
"20 24 98 2",
"  	c None",
". 	c #F3F3F3",
"+ 	c #E4E3E4",
"@ 	c #E3E3E4",
"# 	c #E3E2E3",
"$ 	c #E2E2E3",
"% 	c #E2E1E2",
"& 	c #E2E1E3",
"* 	c #E1E0E1",
"= 	c #E0DFE0",
"- 	c #E0E0E1",
"; 	c #DFDFDF",
"> 	c #8CD190",
", 	c #49D153",
"' 	c #28D335",
") 	c #28D334",
"! 	c #47D151",
"~ 	c #8AD18F",
"{ 	c #DEDDDE",
"] 	c #D4DBD4",
"^ 	c #2AC935",
"/ 	c #38E948",
"( 	c #3AEB4A",
"_ 	c #39EA49",
": 	c #37E847",
"< 	c #26C931",
"[ 	c #D5DBD5",
"} 	c #DDDCDD",
"| 	c #3BEC4B",
"1 	c #38E647",
"2 	c #37E446",
"3 	c #1AC526",
"4 	c #DADBDA",
"5 	c #DBDADB",
"6 	c #8BCE8F",
"7 	c #37E948",
"8 	c #0D7809",
"9 	c #0B7407",
"0 	c #0E7D0C",
"a 	c #3BEE4B",
"b 	c #93D198",
"c 	c #DAD9DA",
"d 	c #4AD054",
"e 	c #38E747",
"f 	c #0C7709",
"g 	c #3BEF4C",
"h 	c #1AC525",
"i 	c #D9D9DA",
"j 	c #2BD237",
"k 	c #37E546",
"l 	c #37E345",
"m 	c #36E244",
"n 	c #22D12E",
"o 	c #D8D8D9",
"p 	c #D8D7D8",
"q 	c #2CD238",
"r 	c #0C7508",
"s 	c #35DE42",
"t 	c #35DF43",
"u 	c #0E7A0A",
"v 	c #3BF04C",
"w 	c #21D02E",
"x 	c #D7D6D7",
"y 	c #4ACF53",
"z 	c #34DC41",
"A 	c #3AEC4A",
"B 	c #1DC628",
"C 	c #D4D4D5",
"D 	c #89CB8D",
"E 	c #36E746",
"F 	c #0F7D0C",
"G 	c #0C7708",
"H 	c #0C7609",
"I 	c #38E947",
"J 	c #91CE95",
"K 	c #D5D4D5",
"L 	c #D4D3D4",
"M 	c #29C834",
"N 	c #23C52E",
"O 	c #D1D2D1",
"P 	c #D2D1D2",
"Q 	c #D1D1D2",
"R 	c #CAD0CB",
"S 	c #1EC528",
"T 	c #38E847",
"U 	c #24C62D",
"V 	c #CFD0D0",
"W 	c #95CC99",
"X 	c #1DC528",
"Y 	c #20CF2D",
"Z 	c #1FC52A",
"` 	c #91CC95",
" .	c #D2D1D3",
"..	c #D0CFD0",
"+.	c #D0CFD1",
"@.	c #CFCECF",
"#.	c #CFCED0",
"$.	c #CECDCE",
". . . . . . . . . . . . . . . . . . . . ",
"+ + + + @ @ @ @ + + + + + + + + + + + + ",
"# # # # $ $ $ $ # # # # # # # # # # # # ",
"% % % % % % % % % % % % % % % % & & & & ",
"* * * * * * * * * * * * * * * * * * * * ",
"= = = = = = = = = = = = = = = = - - - - ",
"; ; ; ; ; ; ; > , ' ) ! ~ ; ; ; ; ; ; ; ",
"{ { { { { ] ^ / ( _ _ ( : < [ { { { { { ",
"} } } } } ^ | _ 1 2 2 2 1 _ 3 4 } } } } ",
"5 5 5 5 6 7 _ _ _ 8 9 9 0 a _ b 5 5 5 5 ",
"c c c c d ( e 1 _ 1 8 9 f g _ h c c c c ",
"i i i i j _ k f l _ m f f g _ n o o o o ",
"p p p p q _ k 9 r s _ t u v _ w p p p p ",
"x x x x y ( k 9 9 9 z _ m A _ B x x x x ",
"C C C C D E e F G G H s _ _ I J K K K K ",
"L L L L L M _ a v v v A _ _ N O L L L L ",
"P P P P Q R S _ _ _ _ _ T U Q Q P P P P ",
"Q Q Q Q Q Q V W X Y Y Z ` V  . .P P P P ",
"................................+.+.+.+.",
"........................................",
"@.@.@.@.@.@.@.@.#.#.#.#.@.@.@.@.@.@.@.@.",
"$.$.$.$.$.$.$.$.$.$.$.$.$.$.$.$.$.$.$.$.",
"$.$.$.$.$.$.$.$.$.$.$.$.$.$.$.$.$.$.$.$.",
"$.$.$.$.$.$.$.$.$.$.$.$.$.$.$.$.$.$.$.$."};
