/* XPM */
static char *maximize_prelight[] = {
/* columns rows colors chars-per-pixel */
"20 24 49 1 ",
"  c #0A7105",
". c #0F7D0C",
"X c #0F7E0C",
"o c #0F7E0D",
"O c #0F7F0D",
"+ c #0F800D",
"@ c #10800E",
"# c #118410",
"$ c #128712",
"% c #169117",
"& c #179218",
"* c #179318",
"= c #179419",
"- c #189519",
"; c #1AC825",
": c #1AC826",
"> c #21D02E",
", c #22D12E",
"< c #22D12F",
"1 c #22D22F",
"2 c #2ECD39",
"3 c #2ECE39",
"4 c #22D230",
"5 c #27D634",
"6 c #27D735",
"7 c #2FD03A",
"8 c #2FD13B",
"9 c #31D63E",
"0 c #31D73E",
"q c #32D73F",
"w c #32D83F",
"e c #32D93F",
"r c #30E13F",
"t c #32D940",
"y c #33DA40",
"u c #31E240",
"i c #35E044",
"p c #36E144",
"a c #36E245",
"s c #35E544",
"d c #35E644",
"f c #35E645",
"g c #38E948",
"h c #38EA48",
"j c #39EB4A",
"k c #3AEB4A",
"l c #3AEC4A",
"z c #3AED4B",
"x c None",
/* pixels */
"xxxxxxxxxxxxxxxxxxxx",
"xxxxxxxxxxxxxxxxxxxx",
"xxxxxxxxxxxxxxxxxxxx",
"xxxxxxxxxxxxxxxxxxxx",
"xxxxxxxxxxxxxxxxxxxx",
"xxxxxxxxxxxxxxxxxxxx",
"xxxxxxx:4664:xxxxxxx",
"xxxxxx>rhhlhu>xxxxxx",
"xxxxx>fza000yf>xxxxx",
"xxxxxyzhw*..-au:xxxx",
"xxxx>hatl8$ Oyh4xxxx",
"xxxx6ly%2l9$Oyh6xxxx",
"xxxx6hy@#3z8-th6xxxx",
"xxxx>hy@ #3htah4xxxx",
"xxxxxua-OO%0lhu;xxxx",
"xxxxx>gyttyahf>xxxxx",
"xxxxxx>rhllhr>xxxxxx",
"xxxxxxxx>66>xxxxxxxx",
"xxxxxxxxxxxxxxxxxxxx",
"xxxxxxxxxxxxxxxxxxxx",
"xxxxxxxxxxxxxxxxxxxx",
"xxxxxxxxxxxxxxxxxxxx",
"xxxxxxxxxxxxxxxxxxxx",
"xxxxxxxxxxxxxxxxxxxx"
};
