/* XPM */
static char * maximize_pressed_xpm[] = {
"20 24 86 1",
" 	c None",
".	c #F3F3F3",
"+	c #E4E3E4",
"@	c #E3E3E4",
"#	c #E3E2E3",
"$	c #E2E2E3",
"%	c #E2E1E2",
"&	c #E2E1E3",
"*	c #E1E0E1",
"=	c #E0DFE0",
"-	c #E0E0E1",
";	c #DFDFDF",
">	c #92D396",
",	c #44C84C",
"'	c #1FC229",
")	c #43C84C",
"!	c #90D394",
"~	c #DEDDDE",
"{	c #D6DBD6",
"]	c #29C433",
"^	c #13C11E",
"/	c #23C32D",
"(	c #DDDCDD",
"_	c #28C332",
":	c #13BF1D",
"<	c #13BD1D",
"[	c #19C123",
"}	c #DBDBDB",
"|	c #DBDADB",
"1	c #8ED092",
"2	c #13BF1E",
"3	c #0B7608",
"4	c #0B7307",
"5	c #0B7407",
"6	c #0C7A09",
"7	c #13C41F",
"8	c #96D19A",
"9	c #DAD9DA",
"0	c #41C64A",
"a	c #13C01E",
"b	c #13BE1E",
"c	c #13C51F",
"d	c #16C121",
"e	c #D9D9DA",
"f	c #1DC227",
"g	c #13BE1D",
"h	c #13BB1D",
"i	c #0B7507",
"j	c #D8D8D9",
"k	c #D8D7D8",
"l	c #1CC226",
"m	c #13BA1C",
"n	c #0C7808",
"o	c #D7D6D7",
"p	c #41C549",
"q	c #12B81B",
"r	c #13BB1C",
"s	c #13C21E",
"t	c #D4D4D5",
"u	c #89CC8D",
"v	c #12B81C",
"w	c #90CD94",
"x	c #D5D4D5",
"y	c #D4D3D4",
"z	c #25C22F",
"A	c #13C61F",
"B	c #13C31F",
"C	c #20C22A",
"D	c #D1D2D1",
"E	c #D2D1D2",
"F	c #D1D1D2",
"G	c #CBD0CC",
"H	c #1CC127",
"I	c #21C22C",
"J	c #D0D0D1",
"K	c #93CB97",
"L	c #18C122",
"M	c #1AC125",
"N	c #8FCB93",
"O	c #D1D0D2",
"P	c #D2D1D3",
"Q	c #D0CFD0",
"R	c #D0CFD1",
"S	c #CFCECF",
"T	c #CFCED0",
"U	c #CECDCE",
"....................",
"++++@@@@++++++++++++",
"####$$$$############",
"%%%%%%%%%%%%%%%%&&&&",
"********************",
"================----",
";;;;;;;>,'')!;;;;;;;",
"~~~~~{]^^^^^^/{~~~~~",
"(((((_^^:<<<:^[}((((",
"||||1^^^234567^8||||",
"99990^:a^b353c^d9999",
"eeeef^g3g^hi37^^jjjj",
"kkkkl^g5im^mnc^^kkkk",
"oooop^g55iq^rs^[oooo",
"ttttu^:65iiv^^^wxxxx",
"yyyyyz^7ccAB^^CDyyyy",
"EEEEFGH^^^^^^IFFEEEE",
"FFFFFFJKL^^MNOPPEEEE",
"QQQQQQQQQQQQQQQQRRRR",
"QQQQQQQQQQQQQQQQQQQQ",
"SSSSSSSSTTTTSSSSSSSS",
"UUUUUUUUUUUUUUUUUUUU",
"UUUUUUUUUUUUUUUUUUUU",
"UUUUUUUUUUUUUUUUUUUU"};
