/* XPM */
static char * menu_pressed_xpm[] = {
"20 24 65 1",
" 	c None",
".	c #F3F3F3",
"+	c #E4E3E4",
"@	c #E3E3E4",
"#	c #E3E2E3",
"$	c #E2E2E3",
"%	c #E2E1E2",
"&	c #E2E1E3",
"*	c #E1E0E1",
"=	c #E0DFE0",
"-	c #E0E0E1",
";	c #DFDFDF",
">	c #BCC8EB",
",	c #9CB2F7",
"'	c #8CA8FC",
")	c #DEDDDE",
"!	c #DADADF",
"~	c #90AAFB",
"{	c #89A6FE",
"]	c #88A5FE",
"^	c #DBDBDF",
"/	c #DDDCDD",
"(	c #91ABFA",
"_	c #3B64DC",
":	c #4D72E5",
"<	c #8AA7FE",
"[	c #DCDBDD",
"}	c #DBDADB",
"|	c #BBC5E8",
"1	c #3A61DB",
"2	c #4B71E5",
"3	c #BFC8E6",
"4	c #DAD9DA",
"5	c #9CB2F5",
"6	c #8BA7FC",
"7	c #D9D9DA",
"8	c #8DA8FB",
"9	c #D8D8D9",
"0	c #D8D7D8",
"a	c #D7D6D7",
"b	c #9BB1F4",
"c	c #D4D4D5",
"d	c #B7C2E4",
"e	c #BBC4E2",
"f	c #D5D4D5",
"g	c #D4D3D4",
"h	c #8FA9FA",
"i	c #4067DF",
"j	c #5075E6",
"k	c #D3D2D4",
"l	c #D2D1D2",
"m	c #D1D1D2",
"n	c #CECFD3",
"o	c #8EA9FA",
"p	c #D0D0D2",
"q	c #B9C3E0",
"r	c #8CA7FC",
"s	c #B9C2E1",
"t	c #D1D0D3",
"u	c #D2D1D3",
"v	c #D0CFD0",
"w	c #D0CFD1",
"x	c #CFCECF",
"y	c #CFCED0",
"z	c #CECDCE",
"....................",
"++++@@@@++++++++++++",
"####$$$$############",
"%%%%%%%%%%%%%%%%&&&&",
"********************",
"================----",
";;;;;;;>,'',>;;;;;;;",
")))))!~{{{]{{~^)))))",
"/////({{{_:<{{'[////",
"}}}}|{{{{12<{{{3}}}}",
"44445{{{{12<{{{64444",
"77778{{{{12<{{{{9999",
"00008{{{{12<{{{{0000",
"aaaab{{{{12<{{{'aaaa",
"ccccd{{{{12<{{{effff",
"gggggh{{{ij<{{hkgggg",
"llllmn6{{{{{{ommllll",
"mmmmmmpq6{{rstuullll",
"vvvvvvvvvvvvvvvvwwww",
"vvvvvvvvvvvvvvvvvvvv",
"xxxxxxxxyyyyxxxxxxxx",
"zzzzzzzzzzzzzzzzzzzz",
"zzzzzzzzzzzzzzzzzzzz",
"zzzzzzzzzzzzzzzzzzzz"};
