/* XPM */
static char * menu_active_xpm[] = {
"20 24 74 1",
" 	c None",
".	c #F3F3F3",
"+	c #E4E3E4",
"@	c #E3E3E4",
"#	c #E3E2E3",
"$	c #E2E2E3",
"%	c #E2E1E2",
"&	c #E2E1E3",
"*	c #E1E0E1",
"=	c #E0DFE0",
"-	c #E0E0E1",
";	c #DFDFDF",
">	c #9FB2EB",
",	c #7797F7",
"'	c #668BFD",
")	c #668CFD",
"!	c #7897F7",
"~	c #DEDDDE",
"{	c #D6D7DF",
"]	c #5C82FB",
"^	c #86A3FE",
"/	c #8BA8FE",
"(	c #89A6FE",
"_	c #84A2FE",
":	c #5982FC",
"<	c #D8D9DF",
"[	c #DDDCDD",
"}	c #5981FB",
"|	c #8CA9FE",
"1	c #4D78FD",
"2	c #DBDBDD",
"3	c #DBDADB",
"4	c #9BAEE9",
"5	c #87A4FE",
"6	c #A9B8E6",
"7	c #DAD9DA",
"8	c #7594F6",
"9	c #8BA7FE",
"0	c #4C77FD",
"a	c #D9D9DA",
"b	c #6489FD",
"c	c #5A83FF",
"d	c #D8D8D9",
"e	c #D8D7D8",
"f	c #6389FD",
"g	c #5B83FF",
"h	c #D7D6D7",
"i	c #7394F6",
"j	c #4E79FD",
"k	c #D4D4D5",
"l	c #98ABE5",
"m	c #85A3FE",
"n	c #86A4FE",
"o	c #A4B2E3",
"p	c #D5D4D5",
"q	c #D4D3D4",
"r	c #5880FB",
"s	c #537DFB",
"t	c #D2D1D4",
"u	c #D2D1D2",
"v	c #D1D1D2",
"w	c #CBCDD3",
"x	c #4C78FD",
"y	c #D0D0D2",
"z	c #A1B1E1",
"A	c #4875FD",
"B	c #A2B1E1",
"C	c #D1D0D3",
"D	c #D2D1D3",
"E	c #D0CFD0",
"F	c #D0CFD1",
"G	c #CFCECF",
"H	c #CFCED0",
"I	c #CECDCE",
"....................",
"++++@@@@++++++++++++",
"####$$$$############",
"%%%%%%%%%%%%%%%%&&&&",
"********************",
"================----",
";;;;;;;>,')!>;;;;;;;",
"~~~~~{]^/((/_:<~~~~~",
"[[[[[}|(((((((12[[[[",
"333345(((((((((63333",
"777789(((((((((07777",
"aaaab((((((((((cdddd",
"eeeef((((((((((geeee",
"hhhhi9(((((((((jhhhh",
"kkkklm((((((((nopppp",
"qqqqqr((((((((stqqqq",
"uuuuvwxn((((msvvuuuu",
"vvvvvvyzAccxBCDDuuuu",
"EEEEEEEEEEEEEEEEFFFF",
"EEEEEEEEEEEEEEEEEEEE",
"GGGGGGGGHHHHGGGGGGGG",
"IIIIIIIIIIIIIIIIIIII",
"IIIIIIIIIIIIIIIIIIII",
"IIIIIIIIIIIIIIIIIIII"};
