/* XPM */
static char * menu_prelight_xpm[] = {
"20 24 81 1",
" 	c None",
".	c #F3F3F3",
"+	c #E4E3E4",
"@	c #E3E3E4",
"#	c #E3E2E3",
"$	c #E2E2E3",
"%	c #E2E1E2",
"&	c #E2E1E3",
"*	c #E1E0E1",
"=	c #E0DFE0",
"-	c #E0E0E1",
";	c #DFDFDF",
">	c #9EB1EB",
",	c #7696F7",
"'	c #648AFD",
")	c #7595F7",
"!	c #9DB0EB",
"~	c #DEDDDE",
"{	c #D6D7DF",
"]	c #5A82FC",
"^	c #86A4FE",
"/	c #8BA7FE",
"(	c #89A6FE",
"_	c #88A5FE",
":	c #86A3FE",
"<	c #5680FC",
"[	c #D7D8DF",
"}	c #DDDCDD",
"|	c #5981FB",
"1	c #8CA8FE",
"2	c #3E65DD",
"3	c #496FE3",
"4	c #8AA7FE",
"5	c #4C78FE",
"6	c #DBDADD",
"7	c #DBDADB",
"8	c #9BAEE9",
"9	c #3C63DC",
"0	c #476EE3",
"a	c #88A6FE",
"b	c #A5B5E7",
"c	c #DAD9DA",
"d	c #7595F6",
"e	c #8BA8FE",
"f	c #4A76FE",
"g	c #D9D9DA",
"h	c #6489FD",
"i	c #5C84FF",
"j	c #D8D8D9",
"k	c #D8D7D8",
"l	c #D7D6D7",
"m	c #7595F5",
"n	c #4D79FD",
"o	c #D4D4D5",
"p	c #99ABE5",
"q	c #84A3FE",
"r	c #A1B1E3",
"s	c #D5D4D5",
"t	c #D4D3D4",
"u	c #587FFB",
"v	c #4269DF",
"w	c #4C72E5",
"x	c #527CFC",
"y	c #D2D1D4",
"z	c #D2D1D2",
"A	c #D1D1D2",
"B	c #CBCDD3",
"C	c #4B77FD",
"D	c #517BFC",
"E	c #CFD0D2",
"F	c #A3B2E0",
"G	c #4B76FD",
"H	c #5B83FF",
"I	c #9FAFE2",
"J	c #D0CFD3",
"K	c #D2D1D3",
"L	c #D0CFD0",
"M	c #D0CFD1",
"N	c #CFCECF",
"O	c #CFCED0",
"P	c #CECDCE",
"....................",
"++++@@@@++++++++++++",
"####$$$$############",
"%%%%%%%%%%%%%%%%&&&&",
"********************",
"================----",
";;;;;;;>,'')!;;;;;;;",
"~~~~~{]^/(_/:<[~~~~~",
"}}}}}|1((234((56}}}}",
"77778^(((904((ab7777",
"ccccde(((904(((fcccc",
"ggggh((((904(((ijjjj",
"kkkk'((((904(((ikkkk",
"llllme(((904(((nllll",
"oooopq(((904((^rssss",
"tttttu(((vw4((xytttt",
"zzzzABCa((((^DAAzzzz",
"AAAAAAEFGHHnIJKKzzzz",
"LLLLLLLLLLLLLLLLMMMM",
"LLLLLLLLLLLLLLLLLLLL",
"NNNNNNNNOOOONNNNNNNN",
"PPPPPPPPPPPPPPPPPPPP",
"PPPPPPPPPPPPPPPPPPPP",
"PPPPPPPPPPPPPPPPPPPP"};
