/* XPM */
static char *title_1_inactive[] = {
/* columns rows colors chars-per-pixel */
"5 24 2 1 ",
"  c #F6F6F6",
". c #FBFBFB",
/* pixels */
".....",
"     ",
"     ",
"     ",
"     ",
"     ",
"     ",
"     ",
"     ",
"     ",
"     ",
"     ",
"     ",
"     ",
"     ",
"     ",
"     ",
"     ",
"     ",
"     ",
"     ",
"     ",
"     ",
"     "
};
