/* XPM */
static char *top_left_active[] = {
/* columns rows colors chars-per-pixel */
"5 24 43 1 ",
"  c #CECDCE",
". c #CECDCF",
"X c #CFCECF",
"o c #D0CFD0",
"O c #D0CFD1",
"+ c #D1D1D2",
"@ c #D2D1D2",
"# c #D4D3D4",
"$ c #D4D3D5",
"% c #D4D4D5",
"& c #D5D4D5",
"* c #D6D6D7",
"= c #D7D6D7",
"- c #D7D7D8",
"; c #D8D7D8",
": c #D8D7D9",
"> c #D8D8D9",
", c #D9D8D9",
"< c #D9D9DA",
"1 c #DAD9DA",
"2 c #DAD9DB",
"3 c #DADADB",
"4 c #DBDADB",
"5 c #DDDCDD",
"6 c #DEDDDE",
"7 c #DFDFDF",
"8 c #E0DFE0",
"9 c gray88",
"0 c #E0E0E1",
"q c #E1E0E1",
"w c #E1E1E2",
"e c #E2E1E2",
"r c #E3E2E3",
"t c gray90",
"y c #E6E6E6",
"u c #E9E8E9",
"i c #EBEAEB",
"p c gray93",
"a c #F3F3F3",
"s c #F4F3F4",
"d c #F4F4F4",
"f c gray96",
"g c None",
/* pixels */
"ggffa",
"gspuy",
"aieee",
"peeee",
"yeeee",
"e06e6",
"06777",
"66666",
"66666",
",4,4,",
",444,",
",>,,,",
">>--,",
"-%--%",
"%%$$%",
"$##$%",
"### #",
"#o###",
" #   ",
"  OO ",
"     ",
"  O  ",
"  O  ",
"     "
};
