/* XPM */
static char *top_right_inactive[] = {
/* columns rows colors chars-per-pixel */
"5 24 7 1 ",
"  c #F6F6F6",
". c #F8F8F8",
"X c #F9F9F9",
"o c gray98",
"O c #FBFBFB",
"+ c gray99",
"@ c None",
/* pixels */
"oo+@@",
" ooo@",
"   oo",
"    o",
"     ",
"     ",
"     ",
"     ",
"     ",
"     ",
"     ",
"     ",
"     ",
"     ",
"     ",
"     ",
"     ",
"     ",
"     ",
"     ",
"     ",
"     ",
"     ",
"     "
};
